<svg xmlns="http://www.w3.org/2000/svg" xmlns:xlink="http://www.w3.org/1999/xlink" width="774" zoomAndPan="magnify" viewBox="0 0 580.5 326.999992" height="436" preserveAspectRatio="xMidYMid meet" version="1.0"><defs><clipPath id="7dadce5af3"><path d="M 0.324219 137 L 127 137 L 127 326.5625 L 0.324219 326.5625 Z M 0.324219 137 " clip-rule="nonzero"/></clipPath><clipPath id="e17d571e7b"><path d="M 324 114 L 579.113281 114 L 579.113281 258.894531 L 324 258.894531 Z M 324 114 " clip-rule="nonzero"/></clipPath><clipPath id="d89621e820"><path d="M 0.324219 137 L 127 137 L 127 326.5625 L 0.324219 326.5625 Z M 0.324219 137 " clip-rule="nonzero"/></clipPath><clipPath id="d954339c52"><path d="M 324 114 L 579.113281 114 L 579.113281 258.894531 L 324 258.894531 Z M 324 114 " clip-rule="nonzero"/></clipPath></defs><path fill="#ff9100" d="M 162.523438 120.597656 C 170.5625 117.664062 177.605469 119.507812 188.652344 126.867188 C 181.566406 136.691406 173.65625 144.828125 165.578125 149.3125 C 156.0625 154.59375 149.1875 152.886719 146.671875 147.605469 C 142.410156 138.648438 149.8125 125.230469 162.523438 120.597656 Z M 255.273438 31.683594 C 263.800781 16.117188 272.722656 10.117188 276.167969 12.277344 C 279.175781 14.167969 280.65625 23.730469 273.609375 34.738281 C 264.597656 48.820312 250.417969 57.804688 239.40625 63 C 244.234375 52.761719 248.777344 43.542969 255.273438 31.683594 Z M 171.40625 157.554688 C 181.695312 153.925781 191.339844 146.132812 200.226562 135.28125 C 235.078125 161.222656 267.210938 172.363281 284.839844 161.535156 C 294.667969 155.5 298.144531 145.089844 294.929688 137.230469 C 293.351562 133.371094 289.597656 131.1875 286.617188 129.980469 C 288.238281 139.199219 285.90625 143.121094 284.058594 145.542969 C 275.011719 157.40625 245.664062 151.246094 206.40625 127.078125 C 212.03125 119.003906 217.316406 109.703125 222.222656 99.488281 C 226.207031 91.203125 229.492188 84.199219 232.417969 77.933594 C 255.542969 68.996094 272.449219 51.925781 278.910156 41.90625 C 286.316406 30.414062 289.816406 10.578125 281.925781 5.457031 C 274.527344 0.660156 259.113281 1.195312 243.542969 26.140625 C 238.304688 34.542969 232.265625 44.074219 219.308594 69.535156 C 207.53125 71.242188 186.605469 71.941406 178.085938 59.1875 C 171.289062 49.011719 173.515625 32.886719 184.269531 24.863281 C 188.246094 21.898438 192.644531 20.902344 196 20.597656 C 193.441406 8.015625 185.621094 8.015625 181.714844 8.871094 C 170.117188 11.398438 158.433594 30.515625 160.179688 48.101562 C 162.851562 75.0625 185.265625 85.933594 210.222656 83.355469 C 210.992188 83.273438 211.753906 83.167969 212.519531 83.070312 C 209.644531 88.867188 206.503906 95.289062 203.035156 102.472656 C 200.261719 108.210938 197.136719 113.882812 193.765625 119.246094 C 173.898438 108.25 160.027344 111.480469 152.710938 115.265625 C 140.945312 121.359375 134.199219 136.964844 138 147.675781 C 142.265625 159.6875 156.335938 162.875 171.40625 157.554688 " fill-opacity="1" fill-rule="nonzero"/><path fill="#ff9100" d="M 304.457031 63.878906 C 307.628906 66.914062 301.390625 80.132812 292.371094 89.039062 C 283.46875 97.835938 272.8125 101.324219 265.355469 102.789062 C 268.59375 94.386719 273.925781 85.167969 280.433594 77.957031 C 289.996094 67.355469 301.164062 60.730469 304.457031 63.878906 Z M 296.851562 92.878906 C 308.589844 82.511719 316.820312 63.910156 311.28125 56.914062 C 305.023438 49.019531 285.691406 49.378906 264.441406 70.488281 C 249.832031 85 241.382812 109.34375 249.515625 123.367188 C 254.421875 131.824219 269.691406 135.105469 278.726562 128.554688 C 283.621094 125.011719 286.1875 119.1875 286.832031 116.332031 C 272.472656 128.984375 267.316406 126.667969 264.441406 124.644531 C 261.125 122.324219 261.28125 115.382812 263.875 107.023438 C 271.359375 106.277344 285.234375 103.132812 296.851562 92.878906 " fill-opacity="1" fill-rule="nonzero"/><path fill="#ff9100" d="M 398.347656 31.683594 C 400.738281 33.640625 404.019531 33.136719 404.953125 32.960938 C 404.8125 36.019531 402.675781 37.796875 401.542969 40.210938 C 403.21875 39.492188 411.382812 35.210938 414.050781 27.488281 C 415.382812 23.640625 415.503906 17.089844 411.207031 14.410156 C 407.246094 11.945312 400.484375 14.65625 397.703125 19.53125 C 395.75 22.953125 394.898438 28.863281 398.347656 31.683594 " fill-opacity="1" fill-rule="nonzero"/><path fill="#ff9100" d="M 305.164062 48.953125 C 313.382812 53.148438 323.753906 51.824219 354.90625 45.480469 C 341.382812 69.714844 320.914062 97.421875 318.242188 115.050781 C 317.285156 121.394531 317.109375 130.542969 327.625 135.378906 C 337.605469 139.960938 352.378906 134.011719 360.320312 122.445312 C 365.3125 115.167969 369.703125 104.820312 367.425781 99.914062 C 365.941406 103.660156 362.585938 112.371094 357.335938 118.605469 C 350.511719 126.710938 342.046875 129.84375 338.570312 128.128906 C 327.339844 122.585938 347.769531 94.417969 361.171875 68.144531 C 366.09375 58.496094 370.507812 49.621094 373.734375 41.714844 C 379.722656 40.8125 386.339844 40.695312 389.816406 44.6875 C 391.617188 46.757812 392.070312 49.363281 392.160156 51.300781 C 393.964844 48.394531 395.519531 44.699219 394.292969 41.492188 C 392.085938 35.730469 386.253906 32.511719 377.207031 32.015625 C 380.28125 21.601562 380.109375 13.519531 374.460938 8.445312 C 370.914062 5.253906 365.566406 5.253906 361.246094 5.886719 C 365.886719 9.277344 367.199219 16.378906 365.15625 23.085938 C 364.183594 26.257812 362.835938 29.636719 361.230469 33.148438 C 346.394531 35.144531 338.042969 37.632812 319.378906 40.140625 C 309.855469 41.417969 305.59375 39.148438 305.164062 34.03125 C 305.039062 32.511719 305.894531 30.203125 307.726562 29.554688 C 309.257812 29.003906 311.1875 29.691406 312.628906 31.253906 C 311.734375 26.707031 309.207031 23.195312 306.230469 22.730469 C 301.78125 22.027344 297.488281 24.929688 296.070312 32.894531 C 294.871094 39.605469 298.769531 45.6875 305.164062 48.953125 " fill-opacity="1" fill-rule="nonzero"/><path fill="#ff9100" d="M 378.390625 101.117188 C 372.527344 114.011719 372.847656 128.753906 383.492188 137.511719 C 397.367188 148.929688 421.023438 142.566406 429.3125 129.539062 C 436.1875 118.734375 436.9375 106.382812 424.140625 87.761719 C 413.761719 72.644531 417.957031 59.363281 422.207031 52.5625 C 428.128906 43.089844 440.058594 44.066406 445.46875 48.246094 C 450.429688 52.085938 448.546875 62.507812 442.265625 68.785156 C 435.761719 75.289062 426.003906 72.980469 425.421875 72.835938 C 424.851562 74.953125 424.738281 77.09375 425.847656 78.59375 C 429.207031 83.113281 443.238281 81.109375 450.796875 73.476562 C 458.851562 65.339844 461.164062 51.597656 453.710938 42.273438 C 444.03125 30.167969 422.398438 31.257812 413.269531 40 C 401.84375 50.933594 398.558594 66.867188 409.21875 85.84375 C 417.21875 100.089844 420.691406 112.152344 416.253906 120.167969 C 411.734375 128.347656 398.363281 131.589844 390.878906 127.421875 C 381.941406 122.433594 382.253906 113.058594 384.3125 105.855469 C 389.046875 89.273438 399.691406 90.929688 402.179688 89.464844 C 397.335938 84.539062 384.3125 88.089844 378.390625 101.117188 " fill-opacity="1" fill-rule="nonzero"/><g clip-path="url(#7dadce5af3)"><path fill="#ff9100" d="M 91.09375 260.464844 C 91.265625 265.324219 89.371094 276.828125 82.851562 289.75 C 71.660156 311.917969 50.585938 315.816406 38.21875 309.9375 C 12.199219 297.566406 22.304688 251.136719 38.5 212.4375 C 59.816406 161.515625 96.070312 144 110.996094 153.808594 C 118.054688 158.449219 116.09375 169.824219 110.28125 181.390625 C 102.851562 196.183594 87.929688 200.734375 84.980469 201.574219 C 88.820312 204.769531 96.847656 204.089844 104.597656 200.289062 C 115.046875 195.175781 125.132812 181.578125 126.488281 168.875 C 126.617188 167.683594 127.820312 152.449219 116.753906 144.425781 C 98.898438 131.492188 69.160156 134.257812 43.238281 163.882812 C 26.65625 182.832031 6.667969 213.863281 0.902344 260.683594 C -1.761719 282.3125 4.160156 317.839844 32.578125 324.945312 C 56.535156 330.933594 79.949219 320.207031 90.609375 294.152344 C 97.402344 277.546875 94.730469 264.769531 93.863281 259.402344 C 92.253906 259.78125 92.703125 260.09375 91.09375 260.464844 " fill-opacity="1" fill-rule="nonzero"/></g><path fill="#ff9100" d="M 155.058594 208.867188 C 158.292969 211.140625 153.601562 224.355469 143.972656 234.597656 C 136.792969 242.234375 128.492188 246.957031 122.636719 248.964844 C 124.078125 241.191406 127.351562 232.539062 132.316406 225.214844 C 139.71875 214.292969 151.855469 206.625 155.058594 208.867188 Z M 126.273438 269.851562 C 122.546875 267.640625 121.199219 261.125 122.035156 253.105469 C 128.605469 251.402344 139.632812 247.375 148.808594 237.441406 C 159.1875 226.191406 167.53125 207.011719 161.597656 200.765625 C 154.742188 193.546875 130.113281 194.796875 113.835938 220.949219 C 103.96875 236.8125 97.519531 262.734375 110.996094 273.542969 C 119.371094 280.265625 134.921875 280.785156 145.113281 272.40625 C 152.433594 266.386719 153.277344 258.292969 153.78125 255.351562 C 144.613281 267.71875 133.488281 274.117188 126.273438 269.851562 " fill-opacity="1" fill-rule="nonzero"/><path fill="#ff9100" d="M 253.351562 207.164062 C 255.859375 209.460938 250.503906 221.03125 239.777344 230.621094 C 232.917969 236.753906 225.574219 240.203125 219.605469 242.203125 C 222.398438 234.675781 227.046875 226.332031 232.671875 219.53125 C 241.84375 208.441406 250.980469 204.980469 253.351562 207.164062 Z M 255.273438 241.917969 C 251.886719 244.757812 226.546875 267.453125 219.027344 261.605469 C 216.390625 259.554688 216.191406 254.476562 217.746094 248.175781 C 224.078125 246.675781 232.847656 243.59375 241.199219 236.875 C 253.996094 226.570312 265.734375 207.789062 260.53125 200.484375 C 255.148438 192.925781 237.363281 188.828125 216.75 210.148438 C 204.125 223.207031 198.816406 245.820312 203.46875 258.71875 C 189.640625 273.46875 182.582031 273.425781 180.429688 271.980469 C 174.296875 267.863281 184.167969 243.230469 196 221.519531 C 211.726562 192.664062 217.421875 178.980469 216.144531 169.804688 C 214.730469 159.648438 205.484375 159.148438 199.40625 162.390625 C 210.222656 178.09375 178.515625 210.574219 165.296875 245.753906 C 161.746094 255.203125 153.78125 276.457031 170.980469 282.074219 C 179.488281 284.855469 193.351562 278.75 205.015625 262.042969 C 206.023438 263.738281 207.28125 265.15625 208.789062 266.226562 C 218.105469 272.808594 235.445312 268.785156 253.707031 249.664062 C 254.085938 247.773438 254.898438 243.8125 255.273438 241.917969 " fill-opacity="1" fill-rule="nonzero"/><path fill="#ff9100" d="M 307.015625 170.394531 C 312.769531 161.441406 322.480469 152.179688 324.640625 153.625 C 326.574219 154.910156 321.574219 167.308594 314.6875 176.933594 C 307.675781 186.746094 298.964844 193.300781 291.0625 197.714844 C 295.476562 189.304688 300.792969 180.074219 307.015625 170.394531 Z M 320.660156 201.667969 C 308.933594 194.703125 292.410156 203.636719 286.261719 217.875 C 282.269531 227.113281 282.648438 242 290.808594 245.449219 C 296.085938 247.679688 304.027344 246.726562 309.574219 238.628906 C 304.671875 241.308594 299.257812 241.691406 295.644531 239.195312 C 288.652344 234.371094 292.867188 221.894531 293.085938 221.285156 C 296.929688 210.355469 307.652344 203.871094 315.757812 207.492188 C 323.664062 211.03125 321.765625 232.4375 313.835938 248.007812 C 304.03125 267.257812 284.832031 277.574219 277.726562 274.019531 C 268.671875 269.496094 270.621094 253.886719 276.023438 233.222656 C 277.722656 226.734375 281.601562 216.6875 287.636719 204.449219 C 296.300781 200.09375 310.246094 191.425781 319.167969 178.496094 C 327.695312 166.132812 333.226562 151.980469 328.90625 147.9375 C 322.152344 141.609375 304.667969 145.875 285.125 175.226562 C 279.210938 184.105469 259.960938 214.808594 253.921875 248.859375 C 251.460938 262.738281 255.226562 279.941406 269.4375 283.496094 C 287.566406 288.027344 303.574219 276.164062 316.394531 255.964844 C 328.261719 237.277344 331.910156 208.347656 320.660156 201.667969 " fill-opacity="1" fill-rule="nonzero"/><g clip-path="url(#e17d571e7b)"><path fill="#ff9100" d="M 567.996094 175.417969 C 570.496094 177.203125 570.164062 184.132812 564.300781 192.191406 C 557.519531 201.503906 545.300781 208.304688 539.535156 210.269531 C 541.210938 204.460938 544.085938 198.121094 547.527344 192.191406 C 555.769531 177.976562 564.015625 172.570312 567.996094 175.417969 Z M 475.269531 224.554688 C 475.128906 226.792969 475.230469 228.851562 475.546875 230.75 C 460.296875 249.703125 453.746094 243.53125 452.664062 242.699219 C 448.695312 239.652344 455.765625 223.34375 459.207031 215.410156 C 468.730469 193.433594 478.261719 185.363281 474.84375 177.027344 C 473.839844 174.585938 471.492188 171.585938 465.570312 169.253906 C 476.910156 168.292969 490.664062 162.8125 508.5625 156.070312 C 490.007812 187.429688 476.179688 209.964844 475.269531 224.554688 Z M 434.757812 232.183594 C 417.695312 250.804688 411.644531 248.246094 410.234375 247.390625 C 403.199219 243.128906 410.578125 222.25 417.695312 209.4375 C 423.445312 199.09375 436.9375 179.960938 446.128906 183 C 447.425781 183.429688 450.503906 184.921875 452.683594 192 C 446.464844 204.289062 439.625 213.703125 434.757812 232.183594 Z M 344.304688 182.90625 C 348.707031 165.488281 358.339844 157.546875 361.882812 160.160156 C 364.679688 162.222656 365.292969 169.753906 356.980469 180.628906 C 352.285156 186.765625 347.816406 190.804688 343.949219 193.246094 C 343.21875 189.839844 343.46875 186.203125 344.304688 182.90625 Z M 569.417969 193.609375 C 575.320312 185.011719 578.210938 171.675781 572.828125 166.605469 C 566.046875 160.21875 546.390625 160.351562 529.613281 186.789062 C 522.972656 197.257812 518.4375 213.050781 520.921875 224.925781 C 511.453125 233.597656 499.703125 240.699219 495.59375 237.488281 C 490.988281 233.886719 496.246094 219.515625 501.492188 207.925781 C 514.820312 178.472656 522.765625 168.488281 531.34375 148.433594 C 531.433594 148.230469 531.515625 148.019531 531.605469 147.816406 C 544.441406 143.640625 567.71875 137.042969 571.21875 143.105469 C 572.65625 145.59375 570.390625 149.609375 568.371094 152.484375 C 578.039062 150.566406 580.269531 142.183594 578.609375 137.699219 C 574.199219 125.828125 557.144531 127.113281 542.503906 131.726562 C 540.148438 132.472656 538.0625 133.132812 536.109375 133.757812 C 537.949219 124.605469 536.878906 116.578125 529.136719 114.390625 C 525.21875 113.28125 520.261719 115.824219 516.0625 119.222656 C 518.488281 118.964844 521.578125 119.035156 523.171875 120.925781 C 526.582031 124.984375 520.976562 134.851562 518.335938 139.40625 C 518.300781 139.476562 518.257812 139.546875 518.214844 139.617188 C 513.070312 141.328125 506.675781 143.472656 497.585938 146.511719 C 475.832031 153.789062 457.476562 159.765625 452.664062 153.335938 C 450.550781 150.511719 450.84375 144.992188 453.519531 143.105469 C 455.894531 141.429688 458.917969 140.472656 463.117188 145.449219 C 463.65625 140.199219 461.214844 136.964844 456.929688 135.640625 C 451.074219 133.828125 440.9375 137.773438 440.9375 150.140625 C 440.9375 159.054688 445.84375 165.488281 452.453125 167.835938 C 455.804688 169.027344 459.375 169.492188 463.21875 169.378906 C 461.402344 175.597656 458.6875 179.703125 456.273438 184.507812 C 454.890625 180.035156 452.457031 175.445312 448.117188 172.761719 C 435.003906 164.660156 413.648438 176.601562 400.855469 196.003906 C 393.332031 207.410156 387.675781 222.3125 388.363281 234.203125 C 371.226562 254.984375 363.566406 250.875 362.5 250.28125 C 346.574219 241.398438 392.601562 200.597656 389.839844 187.453125 C 388.308594 180.167969 383.492188 175.121094 380.171875 172.101562 C 374.835938 182.832031 366.195312 197.6875 357.878906 205.792969 C 351.261719 204.464844 347.363281 201.203125 345.332031 197.195312 C 349.691406 195.285156 355.667969 191.371094 362.027344 183.46875 C 370.839844 172.527344 373.726562 159.527344 367.996094 153.625 C 361.109375 146.527344 345.726562 148.644531 332.359375 167.550781 C 324.125 179.207031 320.53125 198.957031 331.226562 209.34375 C 337.242188 215.183594 347.214844 217.148438 351.152344 217.175781 C 340.746094 231.691406 339.644531 246.996094 346.574219 253.695312 C 356.699219 263.46875 376.34375 257.964844 389.464844 240.5625 C 391.628906 247.585938 396.980469 252.742188 406.894531 254.074219 C 408.957031 254.347656 417.882812 257.183594 435.039062 239 C 436.339844 241.753906 438.648438 248.480469 445.84375 250.804688 C 455.09375 253.785156 468.859375 247.140625 476.660156 234.839844 C 478.664062 239.859375 482.722656 243.390625 488.703125 245.664062 C 497.464844 248.988281 511.671875 243.636719 522.878906 230.722656 C 524.191406 233.367188 526.023438 235.648438 528.476562 237.390625 C 538.996094 244.871094 556.082031 242.347656 565.222656 229.078125 C 572.609375 218.359375 574.976562 205.332031 570.554688 204.414062 C 569.96875 207.964844 570.242188 212.4375 563.136719 221.914062 C 557.792969 229.03125 548.324219 232.863281 543.003906 230.203125 C 538.089844 227.75 537.109375 221.734375 538.53125 214.382812 C 544.125 212.703125 561.070312 205.761719 569.417969 193.609375 " fill-opacity="1" fill-rule="nonzero"/></g><path fill="#ff9100" d="M 162.523438 120.597656 C 170.5625 117.664062 177.605469 119.507812 188.652344 126.867188 C 181.566406 136.691406 173.65625 144.828125 165.578125 149.3125 C 156.0625 154.59375 149.1875 152.886719 146.671875 147.605469 C 142.410156 138.648438 149.8125 125.230469 162.523438 120.597656 Z M 255.273438 31.683594 C 263.800781 16.117188 272.722656 10.117188 276.167969 12.277344 C 279.175781 14.167969 280.65625 23.730469 273.609375 34.738281 C 264.597656 48.820312 250.417969 57.804688 239.40625 63 C 244.234375 52.761719 248.777344 43.542969 255.273438 31.683594 Z M 171.40625 157.554688 C 181.695312 153.925781 191.339844 146.132812 200.226562 135.28125 C 235.078125 161.222656 267.210938 172.363281 284.839844 161.535156 C 294.667969 155.5 298.144531 145.089844 294.929688 137.230469 C 293.351562 133.371094 289.597656 131.1875 286.617188 129.980469 C 288.238281 139.199219 285.90625 143.121094 284.058594 145.542969 C 275.011719 157.40625 245.664062 151.246094 206.40625 127.078125 C 212.03125 119.003906 217.316406 109.703125 222.222656 99.488281 C 226.207031 91.203125 229.492188 84.199219 232.417969 77.933594 C 255.542969 68.996094 272.449219 51.925781 278.910156 41.90625 C 286.316406 30.414062 289.816406 10.578125 281.925781 5.457031 C 274.527344 0.660156 259.113281 1.195312 243.542969 26.140625 C 238.304688 34.542969 232.265625 44.074219 219.308594 69.535156 C 207.53125 71.242188 186.605469 71.941406 178.085938 59.1875 C 171.289062 49.011719 173.515625 32.886719 184.269531 24.863281 C 188.246094 21.898438 192.644531 20.902344 196 20.597656 C 193.441406 8.015625 185.621094 8.015625 181.714844 8.871094 C 170.117188 11.398438 158.433594 30.515625 160.179688 48.101562 C 162.851562 75.0625 185.265625 85.933594 210.222656 83.355469 C 210.992188 83.273438 211.753906 83.167969 212.519531 83.070312 C 209.644531 88.867188 206.503906 95.289062 203.035156 102.472656 C 200.261719 108.210938 197.136719 113.882812 193.765625 119.246094 C 173.898438 108.25 160.027344 111.480469 152.710938 115.265625 C 140.945312 121.359375 134.199219 136.964844 138 147.675781 C 142.265625 159.6875 156.335938 162.875 171.40625 157.554688 " fill-opacity="1" fill-rule="nonzero"/><path fill="#ff9100" d="M 304.457031 63.878906 C 307.628906 66.914062 301.390625 80.132812 292.371094 89.039062 C 283.46875 97.835938 272.8125 101.324219 265.355469 102.789062 C 268.59375 94.386719 273.925781 85.167969 280.433594 77.957031 C 289.996094 67.355469 301.164062 60.730469 304.457031 63.878906 Z M 296.851562 92.878906 C 308.589844 82.511719 316.820312 63.910156 311.28125 56.914062 C 305.023438 49.019531 285.691406 49.378906 264.441406 70.488281 C 249.832031 85 241.382812 109.34375 249.515625 123.367188 C 254.421875 131.824219 269.691406 135.105469 278.726562 128.554688 C 283.621094 125.011719 286.1875 119.1875 286.832031 116.332031 C 272.472656 128.984375 267.316406 126.667969 264.441406 124.644531 C 261.125 122.324219 261.28125 115.382812 263.875 107.023438 C 271.359375 106.277344 285.234375 103.132812 296.851562 92.878906 " fill-opacity="1" fill-rule="nonzero"/><path fill="#ff9100" d="M 398.347656 31.683594 C 400.738281 33.640625 404.019531 33.136719 404.953125 32.960938 C 404.8125 36.019531 402.675781 37.796875 401.542969 40.210938 C 403.21875 39.492188 411.382812 35.210938 414.050781 27.488281 C 415.382812 23.640625 415.503906 17.089844 411.207031 14.410156 C 407.246094 11.945312 400.484375 14.65625 397.703125 19.53125 C 395.75 22.953125 394.898438 28.863281 398.347656 31.683594 " fill-opacity="1" fill-rule="nonzero"/><path fill="#ff9100" d="M 305.164062 48.953125 C 313.382812 53.148438 323.753906 51.824219 354.90625 45.480469 C 341.382812 69.714844 320.914062 97.421875 318.242188 115.050781 C 317.285156 121.394531 317.109375 130.542969 327.625 135.378906 C 337.605469 139.960938 352.378906 134.011719 360.320312 122.445312 C 365.3125 115.167969 369.703125 104.820312 367.425781 99.914062 C 365.941406 103.660156 362.585938 112.371094 357.335938 118.605469 C 350.511719 126.710938 342.046875 129.84375 338.570312 128.128906 C 327.339844 122.585938 347.769531 94.417969 361.171875 68.144531 C 366.09375 58.496094 370.507812 49.621094 373.734375 41.714844 C 379.722656 40.8125 386.339844 40.695312 389.816406 44.6875 C 391.617188 46.757812 392.070312 49.363281 392.160156 51.300781 C 393.964844 48.394531 395.519531 44.699219 394.292969 41.492188 C 392.085938 35.730469 386.253906 32.511719 377.207031 32.015625 C 380.28125 21.601562 380.109375 13.519531 374.460938 8.445312 C 370.914062 5.253906 365.566406 5.253906 361.246094 5.886719 C 365.886719 9.277344 367.199219 16.378906 365.15625 23.085938 C 364.183594 26.257812 362.835938 29.636719 361.230469 33.148438 C 346.394531 35.144531 338.042969 37.632812 319.378906 40.140625 C 309.855469 41.417969 305.59375 39.148438 305.164062 34.03125 C 305.039062 32.511719 305.894531 30.203125 307.726562 29.554688 C 309.257812 29.003906 311.1875 29.691406 312.628906 31.253906 C 311.734375 26.707031 309.207031 23.195312 306.230469 22.730469 C 301.78125 22.027344 297.488281 24.929688 296.070312 32.894531 C 294.871094 39.605469 298.769531 45.6875 305.164062 48.953125 " fill-opacity="1" fill-rule="nonzero"/><path fill="#ff9100" d="M 378.390625 101.117188 C 372.527344 114.011719 372.847656 128.753906 383.492188 137.511719 C 397.367188 148.929688 421.023438 142.566406 429.3125 129.539062 C 436.1875 118.734375 436.9375 106.382812 424.140625 87.761719 C 413.761719 72.644531 417.957031 59.363281 422.207031 52.5625 C 428.128906 43.089844 440.058594 44.066406 445.46875 48.246094 C 450.429688 52.085938 448.546875 62.507812 442.265625 68.785156 C 435.761719 75.289062 426.003906 72.980469 425.421875 72.835938 C 424.851562 74.953125 424.738281 77.09375 425.847656 78.59375 C 429.207031 83.113281 443.238281 81.109375 450.796875 73.476562 C 458.851562 65.339844 461.164062 51.597656 453.710938 42.273438 C 444.03125 30.167969 422.398438 31.257812 413.269531 40 C 401.84375 50.933594 398.558594 66.867188 409.21875 85.84375 C 417.21875 100.089844 420.691406 112.152344 416.253906 120.167969 C 411.734375 128.347656 398.363281 131.589844 390.878906 127.421875 C 381.941406 122.433594 382.253906 113.058594 384.3125 105.855469 C 389.046875 89.273438 399.691406 90.929688 402.179688 89.464844 C 397.335938 84.539062 384.3125 88.089844 378.390625 101.117188 " fill-opacity="1" fill-rule="nonzero"/><g clip-path="url(#d89621e820)"><path fill="#ff9100" d="M 91.09375 260.464844 C 91.265625 265.324219 89.371094 276.828125 82.851562 289.75 C 71.660156 311.917969 50.585938 315.816406 38.21875 309.9375 C 12.199219 297.566406 22.304688 251.136719 38.5 212.4375 C 59.816406 161.515625 96.070312 144 110.996094 153.808594 C 118.054688 158.449219 116.09375 169.824219 110.28125 181.390625 C 102.851562 196.183594 87.929688 200.734375 84.980469 201.574219 C 88.820312 204.769531 96.847656 204.089844 104.597656 200.289062 C 115.046875 195.175781 125.132812 181.578125 126.488281 168.875 C 126.617188 167.683594 127.820312 152.449219 116.753906 144.425781 C 98.898438 131.492188 69.160156 134.257812 43.238281 163.882812 C 26.65625 182.832031 6.667969 213.863281 0.902344 260.683594 C -1.761719 282.3125 4.160156 317.839844 32.578125 324.945312 C 56.535156 330.933594 79.949219 320.207031 90.609375 294.152344 C 97.402344 277.546875 94.730469 264.769531 93.863281 259.402344 C 92.253906 259.78125 92.703125 260.09375 91.09375 260.464844 " fill-opacity="1" fill-rule="nonzero"/></g><path fill="#ff9100" d="M 155.058594 208.867188 C 158.292969 211.140625 153.601562 224.355469 143.972656 234.597656 C 136.792969 242.234375 128.492188 246.957031 122.636719 248.964844 C 124.078125 241.191406 127.351562 232.539062 132.316406 225.214844 C 139.71875 214.292969 151.855469 206.625 155.058594 208.867188 Z M 126.273438 269.851562 C 122.546875 267.640625 121.199219 261.125 122.035156 253.105469 C 128.605469 251.402344 139.632812 247.375 148.808594 237.441406 C 159.1875 226.191406 167.53125 207.011719 161.597656 200.765625 C 154.742188 193.546875 130.113281 194.796875 113.835938 220.949219 C 103.96875 236.8125 97.519531 262.734375 110.996094 273.542969 C 119.371094 280.265625 134.921875 280.785156 145.113281 272.40625 C 152.433594 266.386719 153.277344 258.292969 153.78125 255.351562 C 144.613281 267.71875 133.488281 274.117188 126.273438 269.851562 " fill-opacity="1" fill-rule="nonzero"/><path fill="#ff9100" d="M 253.351562 207.164062 C 255.859375 209.460938 250.503906 221.03125 239.777344 230.621094 C 232.917969 236.753906 225.574219 240.203125 219.605469 242.203125 C 222.398438 234.675781 227.046875 226.332031 232.671875 219.53125 C 241.84375 208.441406 250.980469 204.980469 253.351562 207.164062 Z M 255.273438 241.917969 C 251.886719 244.757812 226.546875 267.453125 219.027344 261.605469 C 216.390625 259.554688 216.191406 254.476562 217.746094 248.175781 C 224.078125 246.675781 232.847656 243.59375 241.199219 236.875 C 253.996094 226.570312 265.734375 207.789062 260.53125 200.484375 C 255.148438 192.925781 237.363281 188.828125 216.75 210.148438 C 204.125 223.207031 198.816406 245.820312 203.46875 258.71875 C 189.640625 273.46875 182.582031 273.425781 180.429688 271.980469 C 174.296875 267.863281 184.167969 243.230469 196 221.519531 C 211.726562 192.664062 217.421875 178.980469 216.144531 169.804688 C 214.730469 159.648438 205.484375 159.148438 199.40625 162.390625 C 210.222656 178.09375 178.515625 210.574219 165.296875 245.753906 C 161.746094 255.203125 153.78125 276.457031 170.980469 282.074219 C 179.488281 284.855469 193.351562 278.75 205.015625 262.042969 C 206.023438 263.738281 207.28125 265.15625 208.789062 266.226562 C 218.105469 272.808594 235.445312 268.785156 253.707031 249.664062 C 254.085938 247.773438 254.898438 243.8125 255.273438 241.917969 " fill-opacity="1" fill-rule="nonzero"/><path fill="#ff9100" d="M 307.015625 170.394531 C 312.769531 161.441406 322.480469 152.179688 324.640625 153.625 C 326.574219 154.910156 321.574219 167.308594 314.6875 176.933594 C 307.675781 186.746094 298.964844 193.300781 291.0625 197.714844 C 295.476562 189.304688 300.792969 180.074219 307.015625 170.394531 Z M 320.660156 201.667969 C 308.933594 194.703125 292.410156 203.636719 286.261719 217.875 C 282.269531 227.113281 282.648438 242 290.808594 245.449219 C 296.085938 247.679688 304.027344 246.726562 309.574219 238.628906 C 304.671875 241.308594 299.257812 241.691406 295.644531 239.195312 C 288.652344 234.371094 292.867188 221.894531 293.085938 221.285156 C 296.929688 210.355469 307.652344 203.871094 315.757812 207.492188 C 323.664062 211.03125 321.765625 232.4375 313.835938 248.007812 C 304.03125 267.257812 284.832031 277.574219 277.726562 274.019531 C 268.671875 269.496094 270.621094 253.886719 276.023438 233.222656 C 277.722656 226.734375 281.601562 216.6875 287.636719 204.449219 C 296.300781 200.09375 310.246094 191.425781 319.167969 178.496094 C 327.695312 166.132812 333.226562 151.980469 328.90625 147.9375 C 322.152344 141.609375 304.667969 145.875 285.125 175.226562 C 279.210938 184.105469 259.960938 214.808594 253.921875 248.859375 C 251.460938 262.738281 255.226562 279.941406 269.4375 283.496094 C 287.566406 288.027344 303.574219 276.164062 316.394531 255.964844 C 328.261719 237.277344 331.910156 208.347656 320.660156 201.667969 " fill-opacity="1" fill-rule="nonzero"/><g clip-path="url(#d954339c52)"><path fill="#ff9100" d="M 567.996094 175.417969 C 570.496094 177.203125 570.164062 184.132812 564.300781 192.191406 C 557.519531 201.503906 545.300781 208.304688 539.535156 210.269531 C 541.210938 204.460938 544.085938 198.121094 547.527344 192.191406 C 555.769531 177.976562 564.015625 172.570312 567.996094 175.417969 Z M 475.269531 224.554688 C 475.128906 226.792969 475.230469 228.851562 475.546875 230.75 C 460.296875 249.703125 453.746094 243.53125 452.664062 242.699219 C 448.695312 239.652344 455.765625 223.34375 459.207031 215.410156 C 468.730469 193.433594 478.261719 185.363281 474.84375 177.027344 C 473.839844 174.585938 471.492188 171.585938 465.570312 169.253906 C 476.910156 168.292969 490.664062 162.8125 508.5625 156.070312 C 490.007812 187.429688 476.179688 209.964844 475.269531 224.554688 Z M 434.757812 232.183594 C 417.695312 250.804688 411.644531 248.246094 410.234375 247.390625 C 403.199219 243.128906 410.578125 222.25 417.695312 209.4375 C 423.445312 199.09375 436.9375 179.960938 446.128906 183 C 447.425781 183.429688 450.503906 184.921875 452.683594 192 C 446.464844 204.289062 439.625 213.703125 434.757812 232.183594 Z M 344.304688 182.90625 C 348.707031 165.488281 358.339844 157.546875 361.882812 160.160156 C 364.679688 162.222656 365.292969 169.753906 356.980469 180.628906 C 352.285156 186.765625 347.816406 190.804688 343.949219 193.246094 C 343.21875 189.839844 343.46875 186.203125 344.304688 182.90625 Z M 569.417969 193.609375 C 575.320312 185.011719 578.210938 171.675781 572.828125 166.605469 C 566.046875 160.21875 546.390625 160.351562 529.613281 186.789062 C 522.972656 197.257812 518.4375 213.050781 520.921875 224.925781 C 511.453125 233.597656 499.703125 240.699219 495.59375 237.488281 C 490.988281 233.886719 496.246094 219.515625 501.492188 207.925781 C 514.820312 178.472656 522.765625 168.488281 531.34375 148.433594 C 531.433594 148.230469 531.515625 148.019531 531.605469 147.816406 C 544.441406 143.640625 567.71875 137.042969 571.21875 143.105469 C 572.65625 145.59375 570.390625 149.609375 568.371094 152.484375 C 578.039062 150.566406 580.269531 142.183594 578.609375 137.699219 C 574.199219 125.828125 557.144531 127.113281 542.503906 131.726562 C 540.148438 132.472656 538.0625 133.132812 536.109375 133.757812 C 537.949219 124.605469 536.878906 116.578125 529.136719 114.390625 C 525.21875 113.28125 520.261719 115.824219 516.0625 119.222656 C 518.488281 118.964844 521.578125 119.035156 523.171875 120.925781 C 526.582031 124.984375 520.976562 134.851562 518.335938 139.40625 C 518.300781 139.476562 518.257812 139.546875 518.214844 139.617188 C 513.070312 141.328125 506.675781 143.472656 497.585938 146.511719 C 475.832031 153.789062 457.476562 159.765625 452.664062 153.335938 C 450.550781 150.511719 450.84375 144.992188 453.519531 143.105469 C 455.894531 141.429688 458.917969 140.472656 463.117188 145.449219 C 463.65625 140.199219 461.214844 136.964844 456.929688 135.640625 C 451.074219 133.828125 440.9375 137.773438 440.9375 150.140625 C 440.9375 159.054688 445.84375 165.488281 452.453125 167.835938 C 455.804688 169.027344 459.375 169.492188 463.21875 169.378906 C 461.402344 175.597656 458.6875 179.703125 456.273438 184.507812 C 454.890625 180.035156 452.457031 175.445312 448.117188 172.761719 C 435.003906 164.660156 413.648438 176.601562 400.855469 196.003906 C 393.332031 207.410156 387.675781 222.3125 388.363281 234.203125 C 371.226562 254.984375 363.566406 250.875 362.5 250.28125 C 346.574219 241.398438 392.601562 200.597656 389.839844 187.453125 C 388.308594 180.167969 383.492188 175.121094 380.171875 172.101562 C 374.835938 182.832031 366.195312 197.6875 357.878906 205.792969 C 351.261719 204.464844 347.363281 201.203125 345.332031 197.195312 C 349.691406 195.285156 355.667969 191.371094 362.027344 183.46875 C 370.839844 172.527344 373.726562 159.527344 367.996094 153.625 C 361.109375 146.527344 345.726562 148.644531 332.359375 167.550781 C 324.125 179.207031 320.53125 198.957031 331.226562 209.34375 C 337.242188 215.183594 347.214844 217.148438 351.152344 217.175781 C 340.746094 231.691406 339.644531 246.996094 346.574219 253.695312 C 356.699219 263.46875 376.34375 257.964844 389.464844 240.5625 C 391.628906 247.585938 396.980469 252.742188 406.894531 254.074219 C 408.957031 254.347656 417.882812 257.183594 435.039062 239 C 436.339844 241.753906 438.648438 248.480469 445.84375 250.804688 C 455.09375 253.785156 468.859375 247.140625 476.660156 234.839844 C 478.664062 239.859375 482.722656 243.390625 488.703125 245.664062 C 497.464844 248.988281 511.671875 243.636719 522.878906 230.722656 C 524.191406 233.367188 526.023438 235.648438 528.476562 237.390625 C 538.996094 244.871094 556.082031 242.347656 565.222656 229.078125 C 572.609375 218.359375 574.976562 205.332031 570.554688 204.414062 C 569.96875 207.964844 570.242188 212.4375 563.136719 221.914062 C 557.792969 229.03125 548.324219 232.863281 543.003906 230.203125 C 538.089844 227.75 537.109375 221.734375 538.53125 214.382812 C 544.125 212.703125 561.070312 205.761719 569.417969 193.609375 " fill-opacity="1" fill-rule="nonzero"/></g></svg>