<svg xmlns="http://www.w3.org/2000/svg" xmlns:xlink="http://www.w3.org/1999/xlink" width="3097" height="1743" preserveAspectRatio="xMidYMid meet" version="1.0" viewBox="0 0 2322.75 1307.25" zoomAndPan="magnify"><defs><clipPath id="8bdd2768ed"><path d="M 1.960938 547 L 508 547 L 508 1306.21875 L 1.960938 1306.21875 Z M 1.960938 547" clip-rule="nonzero"/></clipPath><clipPath id="239110adea"><path d="M 1300 455 L 2320.480469 455 L 2320.480469 1034 L 1300 1034 Z M 1300 455" clip-rule="nonzero"/></clipPath><clipPath id="5fc3a26f1a"><path d="M 1.960938 547 L 508 547 L 508 1306.21875 L 1.960938 1306.21875 Z M 1.960938 547" clip-rule="nonzero"/></clipPath><clipPath id="b6de1eb54c"><path d="M 1300 455 L 2320.480469 455 L 2320.480469 1034 L 1300 1034 Z M 1300 455" clip-rule="nonzero"/></clipPath></defs><path fill="#ff9100" fill-opacity="1" fill-rule="nonzero" d="M 651.699219 481.160156 C 683.90625 469.410156 712.109375 476.785156 756.363281 506.269531 C 727.972656 545.628906 696.285156 578.226562 663.929688 596.183594 C 625.808594 617.34375 598.273438 610.507812 588.191406 589.34375 C 571.125 553.46875 600.773438 499.707031 651.699219 481.160156 Z M 1023.226562 124.992188 C 1057.398438 62.632812 1093.128906 38.597656 1106.933594 47.253906 C 1118.980469 54.8125 1124.910156 93.117188 1096.6875 137.222656 C 1060.585938 193.628906 1003.789062 229.617188 959.667969 250.429688 C 979.011719 209.417969 997.210938 172.484375 1023.226562 124.992188 Z M 687.277344 629.203125 C 728.492188 614.65625 767.128906 583.449219 802.726562 539.976562 C 942.339844 643.898438 1071.058594 688.523438 1141.679688 645.140625 C 1181.039062 620.976562 1194.976562 579.261719 1182.097656 547.777344 C 1175.777344 532.324219 1160.730469 523.578125 1148.796875 518.738281 C 1155.28125 555.671875 1145.941406 571.386719 1138.546875 581.078125 C 1102.300781 628.609375 984.738281 603.929688 827.484375 507.121094 C 850.019531 474.765625 871.179688 437.519531 890.84375 396.601562 C 906.796875 363.414062 919.953125 335.355469 931.683594 310.246094 C 1024.320312 274.445312 1092.035156 206.066406 1117.921875 165.925781 C 1147.589844 119.894531 1161.601562 40.433594 1130.003906 19.917969 C 1100.355469 0.703125 1038.609375 2.851562 976.253906 102.773438 C 955.257812 136.441406 931.074219 174.617188 879.167969 276.613281 C 831.988281 283.449219 748.171875 286.25 714.035156 235.160156 C 686.8125 194.390625 695.726562 129.808594 738.8125 97.65625 C 754.730469 85.777344 772.355469 81.792969 785.789062 80.570312 C 775.542969 30.167969 744.222656 30.167969 728.566406 33.59375 C 682.109375 43.730469 635.316406 120.300781 642.300781 190.757812 C 653.011719 298.757812 742.796875 342.304688 842.773438 331.964844 C 845.847656 331.648438 848.90625 331.222656 851.964844 330.835938 C 840.457031 354.054688 827.875 379.773438 813.976562 408.554688 C 802.875 431.53125 790.347656 454.25 776.839844 475.746094 C 697.265625 431.699219 641.691406 444.632812 612.394531 459.792969 C 565.25 484.214844 538.230469 546.722656 553.464844 589.621094 C 570.550781 637.746094 626.902344 650.515625 687.277344 629.203125"/><path fill="#ff9100" fill-opacity="1" fill-rule="nonzero" d="M 1220.25 253.949219 C 1232.964844 266.105469 1207.964844 319.066406 1171.847656 354.738281 C 1136.175781 389.984375 1093.5 403.957031 1063.625 409.8125 C 1076.597656 376.160156 1097.945312 339.230469 1124.019531 310.339844 C 1162.324219 267.882812 1207.058594 241.347656 1220.25 253.949219 Z M 1189.785156 370.121094 C 1236.816406 328.59375 1269.785156 254.078125 1247.585938 226.058594 C 1222.53125 194.425781 1145.089844 195.871094 1059.957031 280.429688 C 1001.4375 338.5625 967.597656 436.074219 1000.175781 492.257812 C 1019.820312 526.132812 1080.988281 539.273438 1117.179688 513.03125 C 1136.789062 498.835938 1147.070312 475.507812 1149.648438 464.074219 C 1092.128906 514.757812 1071.484375 505.472656 1059.957031 497.375 C 1046.671875 488.070312 1047.300781 460.273438 1057.695312 426.789062 C 1087.679688 423.785156 1143.253906 411.203125 1189.785156 370.121094"/><path fill="#ff9100" fill-opacity="1" fill-rule="nonzero" d="M 1596.359375 124.992188 C 1605.941406 132.828125 1619.078125 130.808594 1622.820312 130.105469 C 1622.265625 142.355469 1613.703125 149.46875 1609.164062 159.144531 C 1615.871094 156.269531 1648.578125 139.113281 1659.273438 108.183594 C 1664.609375 92.765625 1665.089844 66.523438 1647.875 55.796875 C 1632.011719 45.917969 1604.921875 56.777344 1593.785156 76.308594 C 1585.964844 90.003906 1582.554688 113.6875 1596.359375 124.992188"/><path fill="#ff9100" fill-opacity="1" fill-rule="nonzero" d="M 1223.085938 194.167969 C 1256.015625 210.976562 1297.5625 205.65625 1422.351562 180.25 C 1368.167969 277.335938 1286.183594 388.316406 1275.472656 458.941406 C 1271.636719 484.347656 1270.933594 521 1313.054688 540.367188 C 1353.046875 558.730469 1412.214844 534.898438 1444.035156 488.554688 C 1464.027344 459.402344 1481.613281 417.949219 1472.496094 398.304688 C 1466.546875 413.316406 1453.113281 448.210938 1432.082031 473.171875 C 1404.746094 505.636719 1370.835938 518.203125 1356.898438 511.328125 C 1311.925781 489.128906 1393.757812 376.292969 1447.441406 271.035156 C 1467.160156 232.398438 1484.839844 196.835938 1497.773438 165.167969 C 1521.753906 161.554688 1548.269531 161.089844 1562.1875 177.082031 C 1569.394531 185.367188 1571.210938 195.796875 1571.582031 203.5625 C 1578.808594 191.925781 1585.035156 177.117188 1580.125 164.277344 C 1571.285156 141.1875 1547.917969 128.308594 1511.671875 126.304688 C 1523.996094 84.59375 1523.308594 52.21875 1500.683594 31.890625 C 1486.46875 19.105469 1465.046875 19.105469 1447.738281 21.644531 C 1466.328125 35.226562 1471.589844 63.671875 1463.398438 90.542969 C 1459.507812 103.253906 1454.113281 116.78125 1447.683594 130.847656 C 1388.253906 138.851562 1354.789062 148.820312 1280.03125 158.867188 C 1241.878906 163.980469 1224.808594 154.882812 1223.085938 134.386719 C 1222.585938 128.308594 1226.015625 119.0625 1233.351562 116.449219 C 1239.488281 114.242188 1247.214844 117.003906 1252.996094 123.265625 C 1249.402344 105.050781 1239.28125 90.984375 1227.367188 89.113281 C 1209.539062 86.296875 1192.34375 97.933594 1186.65625 129.828125 C 1181.855469 156.714844 1197.476562 181.085938 1223.085938 194.167969"/><path fill="#ff9100" fill-opacity="1" fill-rule="nonzero" d="M 1516.414062 403.125 C 1492.9375 454.769531 1494.214844 513.828125 1536.855469 548.910156 C 1592.429688 594.644531 1687.199219 569.164062 1720.40625 516.980469 C 1747.945312 473.691406 1750.945312 424.214844 1699.6875 349.625 C 1658.105469 289.066406 1674.914062 235.863281 1691.941406 208.621094 C 1715.664062 170.671875 1763.453125 174.582031 1785.117188 191.332031 C 1805 206.714844 1797.457031 248.464844 1772.292969 273.609375 C 1746.238281 299.664062 1707.15625 290.417969 1704.820312 289.824219 C 1702.542969 298.3125 1702.078125 306.890625 1706.527344 312.894531 C 1719.980469 331 1776.183594 322.976562 1806.464844 292.402344 C 1838.726562 259.804688 1847.992188 204.75 1818.140625 167.410156 C 1779.371094 118.914062 1692.703125 123.285156 1656.140625 158.292969 C 1610.367188 202.097656 1597.210938 265.921875 1639.90625 341.933594 C 1671.964844 399.011719 1685.863281 447.320312 1668.09375 479.4375 C 1649.988281 512.199219 1596.433594 525.1875 1566.449219 508.492188 C 1530.648438 488.515625 1531.890625 450.953125 1540.136719 422.101562 C 1559.113281 355.683594 1601.75 362.320312 1611.722656 356.445312 C 1592.320312 336.707031 1540.136719 350.941406 1516.414062 403.125"/><g clip-path="url(#8bdd2768ed)"><path fill="#ff9100" fill-opacity="1" fill-rule="nonzero" d="M 365.558594 1041.449219 C 366.246094 1060.90625 358.664062 1106.992188 332.535156 1158.75 C 287.710938 1247.550781 203.300781 1263.171875 153.75 1239.621094 C 49.527344 1190.066406 90 1004.070312 154.878906 849.058594 C 240.269531 645.066406 385.5 574.90625 445.28125 614.195312 C 473.558594 632.78125 465.699219 678.347656 442.425781 724.675781 C 412.664062 783.9375 352.882812 802.171875 341.078125 805.527344 C 356.460938 818.332031 388.613281 815.609375 419.652344 800.394531 C 461.511719 779.898438 501.910156 725.4375 507.339844 674.550781 C 507.859375 669.769531 512.675781 608.746094 468.351562 576.613281 C 396.820312 524.800781 277.703125 535.882812 173.855469 654.554688 C 107.4375 730.457031 27.367188 854.765625 4.277344 1042.320312 C -6.398438 1128.953125 17.320312 1271.269531 131.160156 1299.734375 C 227.132812 1323.730469 320.917969 1280.757812 363.613281 1176.390625 C 390.835938 1109.863281 380.125 1058.679688 376.660156 1037.183594 C 370.210938 1038.703125 372.007812 1039.945312 365.558594 1041.449219"/></g><path fill="#ff9100" fill-opacity="1" fill-rule="nonzero" d="M 621.789062 834.75 C 634.742188 843.851562 615.953125 896.792969 577.386719 937.820312 C 548.628906 968.417969 515.363281 987.335938 491.921875 995.378906 C 497.6875 964.226562 510.804688 929.574219 530.691406 900.242188 C 560.339844 856.488281 608.964844 825.765625 621.789062 834.75 Z M 506.488281 1079.046875 C 491.550781 1070.1875 486.160156 1044.078125 489.511719 1011.964844 C 515.828125 1005.144531 560.007812 989.003906 596.753906 949.21875 C 638.335938 904.152344 671.75 827.320312 647.992188 802.304688 C 620.527344 773.375 521.867188 778.378906 456.65625 883.15625 C 417.132812 946.699219 391.296875 1050.527344 445.28125 1093.835938 C 478.839844 1120.761719 541.121094 1122.835938 581.945312 1089.277344 C 611.28125 1065.167969 614.652344 1032.738281 616.675781 1020.953125 C 579.945312 1070.503906 535.378906 1096.132812 506.488281 1079.046875"/><path fill="#ff9100" fill-opacity="1" fill-rule="nonzero" d="M 1015.539062 827.933594 C 1025.582031 837.125 1004.121094 883.46875 961.167969 921.886719 C 933.6875 946.457031 904.257812 960.28125 880.351562 968.285156 C 891.546875 938.136719 910.171875 904.707031 932.703125 877.464844 C 969.433594 833.046875 1006.03125 819.183594 1015.539062 827.933594 Z M 1023.226562 967.136719 C 1009.664062 978.515625 908.167969 1069.429688 878.039062 1046.007812 C 867.472656 1037.796875 866.675781 1017.449219 872.902344 992.210938 C 898.273438 986.207031 933.40625 973.863281 966.855469 946.9375 C 1018.113281 905.671875 1065.144531 830.433594 1044.296875 801.171875 C 1022.726562 770.894531 951.496094 754.472656 868.917969 839.882812 C 818.347656 892.199219 797.074219 982.777344 815.71875 1034.441406 C 760.328125 1093.539062 732.050781 1093.351562 723.433594 1087.570312 C 698.859375 1071.078125 738.40625 972.402344 785.789062 885.433594 C 848.796875 769.835938 871.605469 715.023438 866.492188 678.273438 C 860.820312 637.582031 823.796875 635.578125 799.445312 648.570312 C 842.773438 711.480469 715.761719 841.589844 662.796875 982.519531 C 648.585938 1020.359375 616.675781 1105.507812 685.574219 1128.007812 C 719.652344 1139.144531 775.1875 1114.683594 821.90625 1047.765625 C 825.945312 1054.550781 830.988281 1060.238281 837.027344 1064.519531 C 874.347656 1090.886719 943.804688 1074.765625 1016.964844 998.175781 C 1018.484375 990.597656 1021.726562 974.734375 1023.226562 967.136719"/><path fill="#ff9100" fill-opacity="1" fill-rule="nonzero" d="M 1230.5 680.628906 C 1253.550781 644.769531 1292.449219 607.671875 1301.101562 613.453125 C 1308.847656 618.605469 1288.816406 668.269531 1261.242188 706.832031 C 1233.148438 746.136719 1198.253906 772.394531 1166.605469 790.074219 C 1184.28125 756.382812 1205.574219 719.414062 1230.5 680.628906 Z M 1285.164062 805.917969 C 1238.191406 778.007812 1171.996094 813.792969 1147.367188 870.832031 C 1131.375 907.839844 1132.894531 967.472656 1165.585938 981.296875 C 1186.730469 990.226562 1218.527344 986.410156 1240.746094 953.960938 C 1221.121094 964.710938 1199.421875 966.230469 1184.949219 956.242188 C 1156.949219 936.914062 1173.832031 886.933594 1174.703125 884.488281 C 1190.101562 840.71875 1233.054688 814.738281 1265.523438 829.246094 C 1297.191406 843.425781 1289.59375 929.167969 1257.832031 991.542969 C 1218.546875 1068.652344 1141.640625 1109.976562 1113.179688 1095.742188 C 1076.914062 1077.621094 1084.714844 1015.097656 1106.359375 932.316406 C 1113.160156 906.320312 1128.707031 866.070312 1152.871094 817.054688 C 1187.582031 799.597656 1243.453125 764.890625 1279.179688 713.09375 C 1313.351562 663.5625 1335.496094 606.875 1318.1875 590.679688 C 1291.132812 565.328125 1221.105469 582.414062 1142.808594 699.992188 C 1119.128906 735.554688 1042.019531 858.546875 1017.816406 994.953125 C 1007.957031 1050.546875 1023.042969 1119.464844 1079.972656 1133.695312 C 1152.59375 1151.855469 1216.710938 1104.324219 1268.082031 1023.417969 C 1315.613281 948.550781 1330.234375 832.675781 1285.164062 805.917969"/><g clip-path="url(#239110adea)"><path fill="#ff9100" fill-opacity="1" fill-rule="nonzero" d="M 2275.949219 700.753906 C 2285.957031 707.90625 2284.625 735.664062 2261.144531 767.945312 C 2233.976562 805.25 2185.039062 832.492188 2161.929688 840.367188 C 2168.65625 817.089844 2180.164062 791.703125 2193.949219 767.945312 C 2226.972656 711 2259.996094 689.355469 2275.949219 700.753906 Z M 1904.496094 897.589844 C 1903.9375 906.558594 1904.347656 914.804688 1905.605469 922.402344 C 1844.527344 998.324219 1818.289062 973.605469 1813.953125 970.269531 C 1798.050781 958.074219 1826.367188 892.734375 1840.15625 860.953125 C 1878.308594 772.929688 1916.484375 740.59375 1902.789062 707.203125 C 1898.769531 697.417969 1889.375 685.410156 1865.652344 676.070312 C 1911.074219 672.214844 1966.167969 650.253906 2037.863281 623.253906 C 1963.535156 748.878906 1908.144531 839.144531 1904.496094 897.589844 Z M 1742.21875 928.148438 C 1673.875 1002.734375 1649.636719 992.488281 1643.984375 989.058594 C 1615.796875 971.992188 1645.355469 888.363281 1673.875 837.03125 C 1696.910156 795.59375 1750.945312 718.949219 1787.765625 731.125 C 1792.957031 732.847656 1805.296875 738.835938 1814.027344 767.1875 C 1789.121094 816.40625 1761.710938 854.117188 1742.21875 928.148438 Z M 1379.878906 730.753906 C 1397.519531 660.984375 1436.101562 629.167969 1450.296875 639.636719 C 1461.488281 647.902344 1463.953125 678.070312 1430.652344 721.636719 C 1411.84375 746.210938 1393.945312 762.386719 1378.453125 772.171875 C 1375.523438 758.53125 1376.523438 743.96875 1379.878906 730.753906 Z M 2281.640625 773.636719 C 2305.285156 739.1875 2316.867188 685.761719 2295.296875 665.449219 C 2268.128906 639.878906 2189.390625 640.398438 2122.199219 746.300781 C 2095.585938 788.238281 2077.425781 851.503906 2087.378906 899.074219 C 2049.445312 933.820312 2002.375 962.265625 1985.921875 949.402344 C 1967.464844 934.96875 1988.535156 877.410156 2009.546875 830.972656 C 2062.9375 713 2094.753906 672.992188 2129.128906 592.660156 C 2129.480469 591.84375 2129.816406 591.011719 2130.167969 590.195312 C 2181.589844 573.460938 2274.839844 547.039062 2288.847656 571.3125 C 2294.613281 581.28125 2285.53125 597.367188 2277.453125 608.894531 C 2316.183594 601.203125 2325.113281 567.625 2318.460938 549.667969 C 2300.800781 502.117188 2232.476562 507.25 2173.824219 525.746094 C 2164.394531 528.726562 2156.035156 531.378906 2148.214844 533.878906 C 2155.589844 497.207031 2151.292969 465.054688 2120.289062 456.289062 C 2104.59375 451.84375 2084.726562 462.035156 2067.902344 475.65625 C 2077.632812 474.617188 2090.007812 474.894531 2096.382812 482.476562 C 2110.042969 498.726562 2087.601562 538.253906 2077.019531 556.507812 C 2076.871094 556.785156 2076.703125 557.0625 2076.539062 557.339844 C 2055.929688 564.195312 2030.300781 572.796875 1993.890625 584.96875 C 1906.753906 614.121094 1833.222656 638.0625 1813.953125 612.304688 C 1805.484375 600.980469 1806.648438 578.875 1817.378906 571.3125 C 1826.886719 564.605469 1839.003906 560.769531 1855.8125 580.707031 C 1857.980469 559.675781 1848.195312 546.722656 1831.039062 541.421875 C 1807.578125 534.15625 1766.976562 549.964844 1766.976562 599.5 C 1766.976562 635.207031 1786.617188 660.984375 1813.097656 670.378906 C 1826.535156 675.160156 1840.820312 677.015625 1856.222656 676.570312 C 1848.957031 701.476562 1838.078125 717.929688 1828.40625 737.167969 C 1822.863281 719.246094 1813.117188 700.863281 1795.734375 690.117188 C 1743.199219 657.667969 1657.660156 705.496094 1606.402344 783.214844 C 1576.269531 828.914062 1553.609375 888.601562 1556.367188 936.246094 C 1487.730469 1019.488281 1457.042969 1003.03125 1452.761719 1000.640625 C 1388.976562 965.0625 1573.34375 801.617188 1562.28125 748.972656 C 1556.148438 719.785156 1536.855469 699.566406 1523.550781 687.464844 C 1502.183594 730.457031 1467.566406 789.960938 1434.25 822.429688 C 1407.75 817.109375 1392.128906 804.046875 1383.992188 787.996094 C 1401.449219 780.34375 1425.390625 764.667969 1450.871094 733.015625 C 1486.171875 689.171875 1497.738281 637.097656 1474.777344 613.453125 C 1447.203125 585.027344 1385.566406 593.511719 1332.03125 669.25 C 1299.046875 715.929688 1284.648438 795.058594 1327.492188 836.660156 C 1351.582031 860.046875 1391.535156 867.921875 1407.304688 868.035156 C 1365.628906 926.183594 1361.21875 987.484375 1388.976562 1014.316406 C 1429.523438 1053.472656 1508.226562 1031.421875 1560.78125 961.707031 C 1569.453125 989.855469 1590.890625 1010.5 1630.605469 1015.835938 C 1638.871094 1016.929688 1674.617188 1028.289062 1743.347656 955.464844 C 1748.554688 966.488281 1757.800781 993.433594 1786.617188 1002.734375 C 1823.679688 1014.6875 1878.828125 988.058594 1910.074219 938.785156 C 1918.097656 958.890625 1934.347656 973.050781 1958.308594 982.148438 C 1993.40625 995.472656 2050.316406 974.03125 2095.21875 922.292969 C 2100.480469 932.890625 2107.816406 942.027344 2117.640625 949.015625 C 2159.78125 978.980469 2228.214844 968.859375 2264.832031 915.714844 C 2294.425781 872.777344 2303.914062 820.59375 2286.199219 816.90625 C 2283.84375 831.136719 2284.9375 849.058594 2256.476562 887.007812 C 2235.070312 915.527344 2197.136719 930.871094 2175.828125 920.21875 C 2156.148438 910.394531 2152.21875 886.285156 2157.90625 856.839844 C 2180.332031 850.113281 2248.210938 822.316406 2281.640625 773.636719"/></g><path fill="#ff9100" fill-opacity="1" fill-rule="nonzero" d="M 651.699219 481.160156 C 683.90625 469.410156 712.109375 476.785156 756.363281 506.269531 C 727.972656 545.628906 696.285156 578.226562 663.929688 596.183594 C 625.808594 617.34375 598.273438 610.507812 588.191406 589.34375 C 571.125 553.46875 600.773438 499.707031 651.699219 481.160156 Z M 1023.226562 124.992188 C 1057.398438 62.632812 1093.128906 38.597656 1106.933594 47.253906 C 1118.980469 54.8125 1124.910156 93.117188 1096.6875 137.222656 C 1060.585938 193.628906 1003.789062 229.617188 959.667969 250.429688 C 979.011719 209.417969 997.210938 172.484375 1023.226562 124.992188 Z M 687.277344 629.203125 C 728.492188 614.65625 767.128906 583.449219 802.726562 539.976562 C 942.339844 643.898438 1071.058594 688.523438 1141.679688 645.140625 C 1181.039062 620.976562 1194.976562 579.261719 1182.097656 547.777344 C 1175.777344 532.324219 1160.730469 523.578125 1148.796875 518.738281 C 1155.28125 555.671875 1145.941406 571.386719 1138.546875 581.078125 C 1102.300781 628.609375 984.738281 603.929688 827.484375 507.121094 C 850.019531 474.765625 871.179688 437.519531 890.84375 396.601562 C 906.796875 363.414062 919.953125 335.355469 931.683594 310.246094 C 1024.320312 274.445312 1092.035156 206.066406 1117.921875 165.925781 C 1147.589844 119.894531 1161.601562 40.433594 1130.003906 19.917969 C 1100.355469 0.703125 1038.609375 2.851562 976.253906 102.773438 C 955.257812 136.441406 931.074219 174.617188 879.167969 276.613281 C 831.988281 283.449219 748.171875 286.25 714.035156 235.160156 C 686.8125 194.390625 695.726562 129.808594 738.8125 97.65625 C 754.730469 85.777344 772.355469 81.792969 785.789062 80.570312 C 775.542969 30.167969 744.222656 30.167969 728.566406 33.59375 C 682.109375 43.730469 635.316406 120.300781 642.300781 190.757812 C 653.011719 298.757812 742.796875 342.304688 842.773438 331.964844 C 845.847656 331.648438 848.90625 331.222656 851.964844 330.835938 C 840.457031 354.054688 827.875 379.773438 813.976562 408.554688 C 802.875 431.53125 790.347656 454.25 776.839844 475.746094 C 697.265625 431.699219 641.691406 444.632812 612.394531 459.792969 C 565.25 484.214844 538.230469 546.722656 553.464844 589.621094 C 570.550781 637.746094 626.902344 650.515625 687.277344 629.203125"/><path fill="#ff9100" fill-opacity="1" fill-rule="nonzero" d="M 1220.25 253.949219 C 1232.964844 266.105469 1207.964844 319.066406 1171.847656 354.738281 C 1136.175781 389.984375 1093.5 403.957031 1063.625 409.8125 C 1076.597656 376.160156 1097.945312 339.230469 1124.019531 310.339844 C 1162.324219 267.882812 1207.058594 241.347656 1220.25 253.949219 Z M 1189.785156 370.121094 C 1236.816406 328.59375 1269.785156 254.078125 1247.585938 226.058594 C 1222.53125 194.425781 1145.089844 195.871094 1059.957031 280.429688 C 1001.4375 338.5625 967.597656 436.074219 1000.175781 492.257812 C 1019.820312 526.132812 1080.988281 539.273438 1117.179688 513.03125 C 1136.789062 498.835938 1147.070312 475.507812 1149.648438 464.074219 C 1092.128906 514.757812 1071.484375 505.472656 1059.957031 497.375 C 1046.671875 488.070312 1047.300781 460.273438 1057.695312 426.789062 C 1087.679688 423.785156 1143.253906 411.203125 1189.785156 370.121094"/><path fill="#ff9100" fill-opacity="1" fill-rule="nonzero" d="M 1596.359375 124.992188 C 1605.941406 132.828125 1619.078125 130.808594 1622.820312 130.105469 C 1622.265625 142.355469 1613.703125 149.46875 1609.164062 159.144531 C 1615.871094 156.269531 1648.578125 139.113281 1659.273438 108.183594 C 1664.609375 92.765625 1665.089844 66.523438 1647.875 55.796875 C 1632.011719 45.917969 1604.921875 56.777344 1593.785156 76.308594 C 1585.964844 90.003906 1582.554688 113.6875 1596.359375 124.992188"/><path fill="#ff9100" fill-opacity="1" fill-rule="nonzero" d="M 1223.085938 194.167969 C 1256.015625 210.976562 1297.5625 205.65625 1422.351562 180.25 C 1368.167969 277.335938 1286.183594 388.316406 1275.472656 458.941406 C 1271.636719 484.347656 1270.933594 521 1313.054688 540.367188 C 1353.046875 558.730469 1412.214844 534.898438 1444.035156 488.554688 C 1464.027344 459.402344 1481.613281 417.949219 1472.496094 398.304688 C 1466.546875 413.316406 1453.113281 448.210938 1432.082031 473.171875 C 1404.746094 505.636719 1370.835938 518.203125 1356.898438 511.328125 C 1311.925781 489.128906 1393.757812 376.292969 1447.441406 271.035156 C 1467.160156 232.398438 1484.839844 196.835938 1497.773438 165.167969 C 1521.753906 161.554688 1548.269531 161.089844 1562.1875 177.082031 C 1569.394531 185.367188 1571.210938 195.796875 1571.582031 203.5625 C 1578.808594 191.925781 1585.035156 177.117188 1580.125 164.277344 C 1571.285156 141.1875 1547.917969 128.308594 1511.671875 126.304688 C 1523.996094 84.59375 1523.308594 52.21875 1500.683594 31.890625 C 1486.46875 19.105469 1465.046875 19.105469 1447.738281 21.644531 C 1466.328125 35.226562 1471.589844 63.671875 1463.398438 90.542969 C 1459.507812 103.253906 1454.113281 116.78125 1447.683594 130.847656 C 1388.253906 138.851562 1354.789062 148.820312 1280.03125 158.867188 C 1241.878906 163.980469 1224.808594 154.882812 1223.085938 134.386719 C 1222.585938 128.308594 1226.015625 119.0625 1233.351562 116.449219 C 1239.488281 114.242188 1247.214844 117.003906 1252.996094 123.265625 C 1249.402344 105.050781 1239.28125 90.984375 1227.367188 89.113281 C 1209.539062 86.296875 1192.34375 97.933594 1186.65625 129.828125 C 1181.855469 156.714844 1197.476562 181.085938 1223.085938 194.167969"/><path fill="#ff9100" fill-opacity="1" fill-rule="nonzero" d="M 1516.414062 403.125 C 1492.9375 454.769531 1494.214844 513.828125 1536.855469 548.910156 C 1592.429688 594.644531 1687.199219 569.164062 1720.40625 516.980469 C 1747.945312 473.691406 1750.945312 424.214844 1699.6875 349.625 C 1658.105469 289.066406 1674.914062 235.863281 1691.941406 208.621094 C 1715.664062 170.671875 1763.453125 174.582031 1785.117188 191.332031 C 1805 206.714844 1797.457031 248.464844 1772.292969 273.609375 C 1746.238281 299.664062 1707.15625 290.417969 1704.820312 289.824219 C 1702.542969 298.3125 1702.078125 306.890625 1706.527344 312.894531 C 1719.980469 331 1776.183594 322.976562 1806.464844 292.402344 C 1838.726562 259.804688 1847.992188 204.75 1818.140625 167.410156 C 1779.371094 118.914062 1692.703125 123.285156 1656.140625 158.292969 C 1610.367188 202.097656 1597.210938 265.921875 1639.90625 341.933594 C 1671.964844 399.011719 1685.863281 447.320312 1668.09375 479.4375 C 1649.988281 512.199219 1596.433594 525.1875 1566.449219 508.492188 C 1530.648438 488.515625 1531.890625 450.953125 1540.136719 422.101562 C 1559.113281 355.683594 1601.75 362.320312 1611.722656 356.445312 C 1592.320312 336.707031 1540.136719 350.941406 1516.414062 403.125"/><g clip-path="url(#5fc3a26f1a)"><path fill="#ff9100" fill-opacity="1" fill-rule="nonzero" d="M 365.558594 1041.449219 C 366.246094 1060.90625 358.664062 1106.992188 332.535156 1158.75 C 287.710938 1247.550781 203.300781 1263.171875 153.75 1239.621094 C 49.527344 1190.066406 90 1004.070312 154.878906 849.058594 C 240.269531 645.066406 385.5 574.90625 445.28125 614.195312 C 473.558594 632.78125 465.699219 678.347656 442.425781 724.675781 C 412.664062 783.9375 352.882812 802.171875 341.078125 805.527344 C 356.460938 818.332031 388.613281 815.609375 419.652344 800.394531 C 461.511719 779.898438 501.910156 725.4375 507.339844 674.550781 C 507.859375 669.769531 512.675781 608.746094 468.351562 576.613281 C 396.820312 524.800781 277.703125 535.882812 173.855469 654.554688 C 107.4375 730.457031 27.367188 854.765625 4.277344 1042.320312 C -6.398438 1128.953125 17.320312 1271.269531 131.160156 1299.734375 C 227.132812 1323.730469 320.917969 1280.757812 363.613281 1176.390625 C 390.835938 1109.863281 380.125 1058.679688 376.660156 1037.183594 C 370.210938 1038.703125 372.007812 1039.945312 365.558594 1041.449219"/></g><path fill="#ff9100" fill-opacity="1" fill-rule="nonzero" d="M 621.789062 834.75 C 634.742188 843.851562 615.953125 896.792969 577.386719 937.820312 C 548.628906 968.417969 515.363281 987.335938 491.921875 995.378906 C 497.6875 964.226562 510.804688 929.574219 530.691406 900.242188 C 560.339844 856.488281 608.964844 825.765625 621.789062 834.75 Z M 506.488281 1079.046875 C 491.550781 1070.1875 486.160156 1044.078125 489.511719 1011.964844 C 515.828125 1005.144531 560.007812 989.003906 596.753906 949.21875 C 638.335938 904.152344 671.75 827.320312 647.992188 802.304688 C 620.527344 773.375 521.867188 778.378906 456.65625 883.15625 C 417.132812 946.699219 391.296875 1050.527344 445.28125 1093.835938 C 478.839844 1120.761719 541.121094 1122.835938 581.945312 1089.277344 C 611.28125 1065.167969 614.652344 1032.738281 616.675781 1020.953125 C 579.945312 1070.503906 535.378906 1096.132812 506.488281 1079.046875"/><path fill="#ff9100" fill-opacity="1" fill-rule="nonzero" d="M 1015.539062 827.933594 C 1025.582031 837.125 1004.121094 883.46875 961.167969 921.886719 C 933.6875 946.457031 904.257812 960.28125 880.351562 968.285156 C 891.546875 938.136719 910.171875 904.707031 932.703125 877.464844 C 969.433594 833.046875 1006.03125 819.183594 1015.539062 827.933594 Z M 1023.226562 967.136719 C 1009.664062 978.515625 908.167969 1069.429688 878.039062 1046.007812 C 867.472656 1037.796875 866.675781 1017.449219 872.902344 992.210938 C 898.273438 986.207031 933.40625 973.863281 966.855469 946.9375 C 1018.113281 905.671875 1065.144531 830.433594 1044.296875 801.171875 C 1022.726562 770.894531 951.496094 754.472656 868.917969 839.882812 C 818.347656 892.199219 797.074219 982.777344 815.71875 1034.441406 C 760.328125 1093.539062 732.050781 1093.351562 723.433594 1087.570312 C 698.859375 1071.078125 738.40625 972.402344 785.789062 885.433594 C 848.796875 769.835938 871.605469 715.023438 866.492188 678.273438 C 860.820312 637.582031 823.796875 635.578125 799.445312 648.570312 C 842.773438 711.480469 715.761719 841.589844 662.796875 982.519531 C 648.585938 1020.359375 616.675781 1105.507812 685.574219 1128.007812 C 719.652344 1139.144531 775.1875 1114.683594 821.90625 1047.765625 C 825.945312 1054.550781 830.988281 1060.238281 837.027344 1064.519531 C 874.347656 1090.886719 943.804688 1074.765625 1016.964844 998.175781 C 1018.484375 990.597656 1021.726562 974.734375 1023.226562 967.136719"/><path fill="#ff9100" fill-opacity="1" fill-rule="nonzero" d="M 1230.5 680.628906 C 1253.550781 644.769531 1292.449219 607.671875 1301.101562 613.453125 C 1308.847656 618.605469 1288.816406 668.269531 1261.242188 706.832031 C 1233.148438 746.136719 1198.253906 772.394531 1166.605469 790.074219 C 1184.28125 756.382812 1205.574219 719.414062 1230.5 680.628906 Z M 1285.164062 805.917969 C 1238.191406 778.007812 1171.996094 813.792969 1147.367188 870.832031 C 1131.375 907.839844 1132.894531 967.472656 1165.585938 981.296875 C 1186.730469 990.226562 1218.527344 986.410156 1240.746094 953.960938 C 1221.121094 964.710938 1199.421875 966.230469 1184.949219 956.242188 C 1156.949219 936.914062 1173.832031 886.933594 1174.703125 884.488281 C 1190.101562 840.71875 1233.054688 814.738281 1265.523438 829.246094 C 1297.191406 843.425781 1289.59375 929.167969 1257.832031 991.542969 C 1218.546875 1068.652344 1141.640625 1109.976562 1113.179688 1095.742188 C 1076.914062 1077.621094 1084.714844 1015.097656 1106.359375 932.316406 C 1113.160156 906.320312 1128.707031 866.070312 1152.871094 817.054688 C 1187.582031 799.597656 1243.453125 764.890625 1279.179688 713.09375 C 1313.351562 663.5625 1335.496094 606.875 1318.1875 590.679688 C 1291.132812 565.328125 1221.105469 582.414062 1142.808594 699.992188 C 1119.128906 735.554688 1042.019531 858.546875 1017.816406 994.953125 C 1007.957031 1050.546875 1023.042969 1119.464844 1079.972656 1133.695312 C 1152.59375 1151.855469 1216.710938 1104.324219 1268.082031 1023.417969 C 1315.613281 948.550781 1330.234375 832.675781 1285.164062 805.917969"/><g clip-path="url(#b6de1eb54c)"><path fill="#ff9100" fill-opacity="1" fill-rule="nonzero" d="M 2275.949219 700.753906 C 2285.957031 707.90625 2284.625 735.664062 2261.144531 767.945312 C 2233.976562 805.25 2185.039062 832.492188 2161.929688 840.367188 C 2168.65625 817.089844 2180.164062 791.703125 2193.949219 767.945312 C 2226.972656 711 2259.996094 689.355469 2275.949219 700.753906 Z M 1904.496094 897.589844 C 1903.9375 906.558594 1904.347656 914.804688 1905.605469 922.402344 C 1844.527344 998.324219 1818.289062 973.605469 1813.953125 970.269531 C 1798.050781 958.074219 1826.367188 892.734375 1840.15625 860.953125 C 1878.308594 772.929688 1916.484375 740.59375 1902.789062 707.203125 C 1898.769531 697.417969 1889.375 685.410156 1865.652344 676.070312 C 1911.074219 672.214844 1966.167969 650.253906 2037.863281 623.253906 C 1963.535156 748.878906 1908.144531 839.144531 1904.496094 897.589844 Z M 1742.21875 928.148438 C 1673.875 1002.734375 1649.636719 992.488281 1643.984375 989.058594 C 1615.796875 971.992188 1645.355469 888.363281 1673.875 837.03125 C 1696.910156 795.59375 1750.945312 718.949219 1787.765625 731.125 C 1792.957031 732.847656 1805.296875 738.835938 1814.027344 767.1875 C 1789.121094 816.40625 1761.710938 854.117188 1742.21875 928.148438 Z M 1379.878906 730.753906 C 1397.519531 660.984375 1436.101562 629.167969 1450.296875 639.636719 C 1461.488281 647.902344 1463.953125 678.070312 1430.652344 721.636719 C 1411.84375 746.210938 1393.945312 762.386719 1378.453125 772.171875 C 1375.523438 758.53125 1376.523438 743.96875 1379.878906 730.753906 Z M 2281.640625 773.636719 C 2305.285156 739.1875 2316.867188 685.761719 2295.296875 665.449219 C 2268.128906 639.878906 2189.390625 640.398438 2122.199219 746.300781 C 2095.585938 788.238281 2077.425781 851.503906 2087.378906 899.074219 C 2049.445312 933.820312 2002.375 962.265625 1985.921875 949.402344 C 1967.464844 934.96875 1988.535156 877.410156 2009.546875 830.972656 C 2062.9375 713 2094.753906 672.992188 2129.128906 592.660156 C 2129.480469 591.84375 2129.816406 591.011719 2130.167969 590.195312 C 2181.589844 573.460938 2274.839844 547.039062 2288.847656 571.3125 C 2294.613281 581.28125 2285.53125 597.367188 2277.453125 608.894531 C 2316.183594 601.203125 2325.113281 567.625 2318.460938 549.667969 C 2300.800781 502.117188 2232.476562 507.25 2173.824219 525.746094 C 2164.394531 528.726562 2156.035156 531.378906 2148.214844 533.878906 C 2155.589844 497.207031 2151.292969 465.054688 2120.289062 456.289062 C 2104.59375 451.84375 2084.726562 462.035156 2067.902344 475.65625 C 2077.632812 474.617188 2090.007812 474.894531 2096.382812 482.476562 C 2110.042969 498.726562 2087.601562 538.253906 2077.019531 556.507812 C 2076.871094 556.785156 2076.703125 557.0625 2076.539062 557.339844 C 2055.929688 564.195312 2030.300781 572.796875 1993.890625 584.96875 C 1906.753906 614.121094 1833.222656 638.0625 1813.953125 612.304688 C 1805.484375 600.980469 1806.648438 578.875 1817.378906 571.3125 C 1826.886719 564.605469 1839.003906 560.769531 1855.8125 580.707031 C 1857.980469 559.675781 1848.195312 546.722656 1831.039062 541.421875 C 1807.578125 534.15625 1766.976562 549.964844 1766.976562 599.5 C 1766.976562 635.207031 1786.617188 660.984375 1813.097656 670.378906 C 1826.535156 675.160156 1840.820312 677.015625 1856.222656 676.570312 C 1848.957031 701.476562 1838.078125 717.929688 1828.40625 737.167969 C 1822.863281 719.246094 1813.117188 700.863281 1795.734375 690.117188 C 1743.199219 657.667969 1657.660156 705.496094 1606.402344 783.214844 C 1576.269531 828.914062 1553.609375 888.601562 1556.367188 936.246094 C 1487.730469 1019.488281 1457.042969 1003.03125 1452.761719 1000.640625 C 1388.976562 965.0625 1573.34375 801.617188 1562.28125 748.972656 C 1556.148438 719.785156 1536.855469 699.566406 1523.550781 687.464844 C 1502.183594 730.457031 1467.566406 789.960938 1434.25 822.429688 C 1407.75 817.109375 1392.128906 804.046875 1383.992188 787.996094 C 1401.449219 780.34375 1425.390625 764.667969 1450.871094 733.015625 C 1486.171875 689.171875 1497.738281 637.097656 1474.777344 613.453125 C 1447.203125 585.027344 1385.566406 593.511719 1332.03125 669.25 C 1299.046875 715.929688 1284.648438 795.058594 1327.492188 836.660156 C 1351.582031 860.046875 1391.535156 867.921875 1407.304688 868.035156 C 1365.628906 926.183594 1361.21875 987.484375 1388.976562 1014.316406 C 1429.523438 1053.472656 1508.226562 1031.421875 1560.78125 961.707031 C 1569.453125 989.855469 1590.890625 1010.5 1630.605469 1015.835938 C 1638.871094 1016.929688 1674.617188 1028.289062 1743.347656 955.464844 C 1748.554688 966.488281 1757.800781 993.433594 1786.617188 1002.734375 C 1823.679688 1014.6875 1878.828125 988.058594 1910.074219 938.785156 C 1918.097656 958.890625 1934.347656 973.050781 1958.308594 982.148438 C 1993.40625 995.472656 2050.316406 974.03125 2095.21875 922.292969 C 2100.480469 932.890625 2107.816406 942.027344 2117.640625 949.015625 C 2159.78125 978.980469 2228.214844 968.859375 2264.832031 915.714844 C 2294.425781 872.777344 2303.914062 820.59375 2286.199219 816.90625 C 2283.84375 831.136719 2284.9375 849.058594 2256.476562 887.007812 C 2235.070312 915.527344 2197.136719 930.871094 2175.828125 920.21875 C 2156.148438 910.394531 2152.21875 886.285156 2157.90625 856.839844 C 2180.332031 850.113281 2248.210938 822.316406 2281.640625 773.636719"/></g></svg>